<?xml version="1.0" encoding="UTF-8" standalone="yes"?><svg xmlns="http://www.w3.org/2000/svg" xmlns:xlink="http://www.w3.org/1999/xlink" version="1.2" baseProfile="tiny-ps" viewBox="0 0 300 300"><title>estoy.link</title><g><g fill="#fff" transform="matrix(.1 0 0 -.1 0 300)"><path d="M0 1500V0h3000v3000H0V1500z"></path></g><g fill="#e3e5e8" transform="matrix(.1 0 0 -.1 0 300)"><path d="m1830 1958-19-32-98-27c-161-45-244-69-317-91l-69-21-34 18-33 18-25-13-26-14-5-22c-3-12-3-31 0-42l6-19 25-11 25-12 25 12 25 11 6 24 6 23 42 11c22 6 73 20 111 31 39 11 111 31 160 44 50 14 112 32 138 40l48 16 24-16c13-9 33-16 43-16h19l16 18 17 19v62l-19 11c-11 5-31 10-45 10h-26l-20-32zm24-313-7-27 16-15 15-15 21 7 22 7-3 31-3 32-27 3-27 3-7-26zm-124-140v-155h70v310h-70v-155zm510 0v-155h70v58l14 11 15 12 23-40 23-41h75v10c0 6-16 34-35 63-19 28-35 57-35 62 0 6 16 26 35 45s35 38 35 42v8h-77l-36-42-37-42v164h-70v-155zm-1223 119c-4-4-7-18-7-31v-23h-30v-60h30v-120l20-20 20-20h33c17 0 38 4 46 9l14 9-6 25-7 24-25-5-25-4v101l28 3 27 3v50l-27 3-27 3-3 27-3 27-25 3c-14 2-29 0-33-4zm-418-59-26-14-18-37-17-36 7-34 6-34 23-26 22-27 52-5 52-5 25 17c29 19 32 38 10 56l-16 13-11-11-12-12h-64l-6 15-5 15h149v72l-34 34-34 34h-38l-39-1-26-14zm91-60 12-15h-82v8c0 14 12 22 35 22h23l12-15zm126 54-26-20v-59l20-20c11-11 28-20 38-20s26-6 36-13l19-14-15-5-14-6-37 13-37 13-11-20-11-20 16-16 15-15 55-5 55-4 25 25 26 26v18c0 10-7 28-15 40l-16 22-39 12c-22 7-40 16-40 21 0 11 41 10 60-2l14-9 13 11c7 6 13 18 13 28v17l-25 11c-14 7-41 12-59 12h-33l-27-21zm392 5-28-15-15-29c-8-16-15-42-15-57v-28l20-33 20-32 26-10c14-6 43-10 64-10h40l30 28 31 27 5 40 6 40-11 27-11 28-32 20-33 20h-35l-35-1-27-15zm105-75 10-16-7-27-7-27-14-6c-8-3-26-2-39 1l-24 6-6 25-6 25 10 21 11 20 31-3 31-3 10-16zm74 84c-3-5 1-22 8-38 8-17 27-63 44-103l31-74-6-9c-3-5-18-9-33-9h-28l-10-23-11-23 19-12c10-7 31-12 46-12h28l22 18 22 17 51 127c27 70 50 132 50 138v10h-58l-9-12c-5-7-17-39-28-71l-18-58-26 68-26 68-32 3-31 3-5-8zm470 0c-4-3-7-55-7-115v-108h70v230h-28c-16 0-32-3-35-7zm120 0c-4-3-7-55-7-115v-108h70v121l10 20 11 19h48l11-19 10-20v-122l33 3 32 3v89l-1 88-27 24-28 24h-55l-22-16-22-15v31h-28c-16 0-32-3-35-7zm-345-162-14-8 4-24 3-24h60l3 18 4 18-12 14c-14 17-29 19-48 6z"></path></g><g fill="#bdc2ca" transform="matrix(.1 0 0 -.1 0 300)"><path d="m1848 1979-18-10v-38l-57-17c-32-9-148-43-258-74l-200-58-16 14-16 14h-50l-16-18c-10-10-17-28-17-39v-20l18-16 19-17h53l20 32 19 31 247 70 247 70 19-12c22-14 53-14 79-1l19 11v56l-18 16c-21 19-49 21-74 6zm12-324-12-14 7-21 7-21 26 3 27 3 3 24 4 24-14 8c-19 13-34 11-48-6zm-123-1-7-7v-298l33 3 32 3v300l-25 3c-14 2-29 0-33-4zm508-6c-3-8-4-77-3-153l3-140 33-3 32-3v67l12 12 12 12 28-45 28-45h35c19 0 35 3 35 8 0 4-18 34-39 67l-38 60 40 43 41 42h-80l-35-36-34-35-5 78-5 78-28 3-27 3-5-13zm-1235-58v-30h-30v-40h30v-117l22-28 21-27 39 5c48 6 52 10 43 36l-6 21h-49v110h60v40h-60v60h-70v-30zm-387-21-32-9-20-26-21-27v-46l1-46 12-15c7-9 23-24 37-33l24-17h67l29 15c53 27 33 50-44 50h-49l-4 13-5 12h143l5 15 6 14-12 36-12 36-21 13c-12 8-33 16-47 19l-25 5-32-9zm75-73 3-16h-81v15c0 7 8 18 17 23l17 10 20-8 21-7 3-17zm136 70-31-14-7-17c-17-46 5-79 68-96l36-10v-29h-22c-13 0-35 6-49 14l-26 13-11-18c-17-27-16-28 23-45 44-18 78-18 114 1l28 14 6 21c3 11 3 30 0 41l-6 21-56 25-55 25 16 9 16 9 32-11 32-12 9 14c5 8 9 19 9 26v12l-37 10c-47 13-51 13-89-3zm402 4c-16-5-39-19-51-30l-23-22-6-32-6-32 11-32 11-31 33-21 32-20h64l29 15 30 15 15 30c19 37 19 73 0 109l-14 28-28 11c-47 18-67 20-97 12zm68-66 16-15v-55l-12-12-12-12h-55l-11 19c-14 28-12 52 7 73 20 22 46 23 67 2zm769 61-33-14v19h-71l3-107 3-108 33-3 32-3v137l12 12c7 7 21 12 33 12s26-5 33-12l12-12v-136h60v178l-17 20c-10 12-29 24-43 26l-25 6-32-15zm-683-3c0-5 18-51 41-103l41-94-10-15-9-15h-46l-11-17-11-17 13-13 12-12h69l20 18 20 18 46 116c26 65 49 123 52 130l5 12h-69l-17-52c-9-29-20-59-25-66l-8-13-24 63-25 63-32 3-32 3v-9zm462-99 3-108 33-3 32-3v221h-71l3-107zm-222-57-12-16 6-15c3-9 13-18 22-22l16-6 16 17 17 16-11 18c-6 9-18 18-26 20l-15 3-13-15z"></path></g><g fill="#929aa6" transform="matrix(.1 0 0 -.1 0 300)"><path d="M1848 1973c-8-10-17-25-20-33l-6-15-253-72-253-73-16 15-17 15h-53l-15-24-16-23 10-26 10-26 25-7 25-6 16 9c9 5 22 20 28 34l12 24 250 71 250 71 16-13 16-14h50l16 18c22 25 21 48-3 72l-20 20h-37l-15-17zm17-319c-18-18-16-33 7-47l15-10 17 6 16 6v19c0 18-18 42-31 42-4 0-15-7-24-16zm-135-149v-145h60v290h-60v-145zm520 0v-145h60v58l14 11 14 12 23-41 23-40h77l-19 28c-10 15-28 43-40 63l-22 36 36 41 36 42h-66l-38-37-38-37v154h-60v-145zm-1240 85v-30h-30v-40h30v-105l13-25 12-25 25-8 25-9 27 11 26 10-5 20-5 21h-48v110h50v40h-50v60h-70v-30zm-426-43-27-23-4-50-5-50 26-31 26-30 30-6c37-8 79 0 105 19l19 14-15 15-15 15-31-12-31-12-28 20-29 19 80 5 80 5-1 13c-1 6-2 23-2 36l-2 23-26 27-27 26h-96l-27-23zm104-29c7-7 12-18 12-25v-13h-45c-49 0-53 4-28 32 19 21 44 23 61 6zm128 37c-8-8-17-24-21-35l-6-19 10-20 11-19 45-17 45-18v-27h-26c-14 0-35 5-46 11l-21 12-14-18-13-18 22-15 22-16h47l47-1 21 19 21 19v54l-17 15c-10 9-35 21-55 28-40 12-49 27-23 36l15 6 30-10 30-11 10 19 10 19-19 11-20 10h-90l-15-15zm373-14-29-29v-88l16-23 17-23 34-14 34-15 34 7 33 6 22 20c12 11 26 31 31 45l9 25-6 34-6 34-30 25-30 25h-100l-29-29zm119-33 12-12v-66l-25-16-25-16-25 16-25 16v59l16 15 15 16h23c12 0 27-5 34-12zm85 50c3-7 22-54 42-104l38-92-7-17-6-17-25 5-26 4-10-20-11-20 13-8c8-5 30-9 50-9h36l16 18c8 9 38 73 65 142l50 125-20 3c-11 2-25 1-33-1l-13-6-22-66c-12-36-23-65-25-63s-14 32-28 68l-24 65-33 3-33 3 6-13zm467-93v-105h60v210h-60v-105zm120 0v-105h60v127l20 18 20 18 25-11 25-12v-140h60v170l-20 20-20 20h-73l-19-17-18-16v33h-60v-105zm-344-61-16-15 10-20 11-19h28l11 19 10 20-16 15c-8 9-17 16-19 16s-11-7-19-16z"></path></g><g fill="#677384" transform="matrix(.1 0 0 -.1 0 300)"><path d="M1842 1968c-7-7-12-19-12-28v-15l-259-74-260-74-16 17c-21 20-49 21-69 0l-16-15v-22c0-27 10-42 33-50l18-7 20 11c11 5 24 20 28 32l9 23 257 72 256 72 15-15 15-15h49l15 24 16 23-10 27-11 26h-66l-12-12zm18-333v-26l16-6 16-6 15 16 16 15-6 16-6 16h-51v-25zm-120-130v-145h50v290h-50v-145zm510 0v-145h60v24c0 31 10 56 21 56 5 0 20-18 34-40l25-40h30c17 0 30 2 30 5s-16 31-35 61-35 57-35 61 17 24 37 45l37 38h-62l-41-42-41-43v165h-60v-145zm-1230 85v-30h-30v-40h30v-136l12-12 12-12h86v52l-16-6-17-6-13 11-14 11v98h60v40h-60v60h-50v-30zm-422-37c-47-30-61-89-33-143 20-38 43-50 98-50h45l22 18 22 18-15 13-16 12-20-10c-11-6-28-11-39-11h-19l-16 18c-10 10-17 22-17 25 0 4 34 7 75 7h75v62l-29 29-29 29h-39l-38-1-27-16zm96-39c9-8 16-20 16-25v-9H610v9c0 16 31 41 50 41 10 0 26-7 34-16zm128 40-23-16 3-36 3-37 42-15c24-9 48-21 55-28l11-11-18-7-18-7-38 10-38 10-6-16-6-15 17-13 18-13h92l22 16 22 15v57l-14 11c-7 6-31 17-52 25l-39 13-3 16-3 17h26c14 0 35-5 45-10l19-10 11 20 11 20-26 10c-15 6-41 10-58 10h-33l-22-16zm385 1-28-16-9-25c-6-14-10-41-10-60v-36l29-29 29-29h104l29 29 29 29v91l-23 27-23 27-50 3-49 4-28-15zm108-59 16-24-7-26-6-27-18-9c-26-14-46-12-64 6l-16 15v65l12 12 12 12h56l15-24zm84 52c5-13 25-61 45-107l36-84-12-15-12-14-22 5-21 4-13-20-12-20 14-8c7-5 27-9 44-9h30l17 13 17 12 50 124c28 68 50 128 50 133v9l-27-3-26-3-21-62c-12-34-24-64-27-68l-7-6-27 70-27 71h-58l9-22zm461-83v-105h60v210h-60v-105zm120 0v-105h60v140l26 12 26 12 16-11 17-10 3-72 3-71h59v161l-25 24-24 25h-57l-22-16-22-15v31h-60v-105zm-350-79v-24l13-5c6-2 18-2 25 1l12 4v48h-50v-24z"></path></g><g fill="#475569" transform="matrix(.1 0 0 -.1 0 300)"><path d="m1838 1954-12-26 10-16c6-8 18-20 26-26l16-10 26 12 26 12v56l-12 12-12 12h-56l-12-26zm-68-49-35-13 15-1c8 0 29 6 45 14 39 17 21 18-25 0zm-62-22c7-3 16-2 19 1 4 3-2 6-13 5l-19-1 13-5zm-70-20c7-3 16-2 19 1 4 3-2 6-13 5l-19-1 13-5zm-78-18c-19-7-28-13-20-13s31 6 50 13 28 13 20 13-31-6-50-13zm-62-22c7-3 16-2 19 1 4 3-2 6-13 5l-19-1 13-5zm-266-29-22-15v-23c0-29 18-46 50-46s50 17 50 46v23l-22 15c-12 9-25 16-28 16s-16-7-28-16zm196 9c7-3 16-2 19 1 4 3-2 6-13 5l-19-1 13-5zm-40-10c7-3 16-2 19 1 4 3-2 6-13 5l-19-1 13-5zm-53-13-20-9h15c8 0 22 4 30 9l15 10-10-1c-5 0-19-4-30-9zm532-127c-4-3-7-14-7-24v-17l14-5 14-6 17 12 16 13-7 17-6 17h-17c-10 0-21-3-24-7zm-127-148v-145h50v290h-50v-145zm510 0v-145h50v21c0 28 18 59 34 59h12l23-40 22-40h61l-23 38c-12 20-29 49-38 64l-16 27 33 34c38 39 40 47 9 47h-23l-39-40c-21-22-43-40-47-40h-8v160h-50v-145zm-1230 85v-30h-30v-40h30v-127l19-17 19-17 34 3 33 3v29l-25 6-25 6-3 57-3 57h61v40h-60v60h-50v-30zm-410-32-25-13-18-37-18-37 11-40 11-41 29-15c35-18 80-19 115-3l26 11-4 11-4 11-47-3-47-4-14 12c-8 7-15 19-15 26v14h153l-6 37-6 37-19 19-19 19-39 4-39 5-25-13zm88-40c7-7 12-18 12-25v-13H610v13c0 21 22 37 50 37 14 0 31-5 38-12zm135 42-22-9-7-26c-3-14-4-32 0-40 5-14 44-35 89-49l17-5v-30l-19-6-20-6-35 15-34 14-6-15c-7-18-8-17 21-32 28-14 75-14 108 1l25 11 6 23 6 23-10 17-10 17-43 16-44 17-3 18-4 18 48-4 47-3 4 12 5 13-27 10c-31 12-62 12-92 0zm397 3c-8-3-25-15-37-26l-23-20-6-34-6-33 12-31 13-30 28-14c53-28 115-16 151 29l18 21v81l-21 23c-33 35-86 50-129 34zm80-53 20-20v-23c0-12-7-33-16-45l-15-22h-49l-20 20-20 20v49l26 20c33 26 49 26 74 1zm90 49c0-5 18-52 40-104s40-96 40-99c0-2-7-12-16-21l-16-16-19 6-19 6-7-16-6-17 14-9c8-5 24-9 36-9h22l25 23 25 22 40 105c22 58 42 113 46 123l7 17h-50l-22-67c-13-38-26-72-30-76l-8-9-28 76-29 76h-45v-11zm460-94v-105h50v210h-50v-105zm120 0v-105h50v105l13 25 13 25 22 3 23 4 15-12 14-12v-138h60v141l-15 28c-22 44-58 52-109 26-35-18-36-18-36 0v15h-50v-105zm-346-70-7-16 11-11 11-11 16 7 16 6-3 17-3 18-18 3-17 3-6-16z"></path></g></g></svg>